<svg viewBox="0 0 688 78" fill="none" xmlns="http://www.w3.org/2000/svg">
<path d="M19.536 18.9851H19.036V19.4851V29.2574V29.7574H19.536H91.5263H92.0263V29.2574V19.4851V18.9851H91.5263H19.536ZM110.562 29.2574V29.7574H111.062H120.36V77.5H0.5V0.5H110.562V29.2574ZM101.764 48.7425V48.2425H101.264H19.536H19.036V48.7425V58.5149V59.0149H19.536H101.264H101.764V58.5149V48.7425ZM160.029 58.4553V58.9553H160.529H257.47V77.4404H141.493V0.5H160.029V58.4553ZM310.245 48.183H309.957L309.812 48.4328L293.049 77.4404H271.682L316.209 0.5H372.269L416.796 77.4404H395.369L378.606 48.4328L378.461 48.183H378.173H310.245ZM321.103 29.0083L320.673 29.7574H321.537H366.822H367.686L367.255 29.0083L361.639 19.236L361.495 18.9851H361.206H327.152H326.863L326.719 19.236L321.103 29.0083ZM531.794 56.6081V0.5H550.33V77.4404H531.457L453.683 20.9278L452.89 20.3509V21.3323V77.4404H434.354V0.5H453.227L531 57.0126L531.794 57.5895V56.6081ZM633.819 39.3754L686.455 77.4404H658.649L618.334 48.3372L618.203 48.2425H618.041H590.499H589.999V48.7425V77.4404H571.464V0.5H589.999V29.2574V29.7574H590.499H618.041H618.203L618.334 29.6626L658.649 0.5H686.455L633.819 38.565L633.259 38.9702L633.819 39.3754Z" fill="#000" stroke="#fff"/>
</svg>
