<svg version="1.1" xmlns="http://www.w3.org/2000/svg">
	<symbol viewBox="0 0 16 29" fill="none" id="icon-arrow-bottom">
		<path d="M7.29289 28.7071C7.68342 29.0976 8.31658 29.0976 8.70711 28.7071L15.0711 22.3431C15.4616 21.9526 15.4616 21.3195 15.0711 20.9289C14.6805 20.5384 14.0474 20.5384 13.6569 20.9289L8 26.5858L2.34314 20.9289C1.95262 20.5384 1.31946 20.5384 0.928931 20.9289C0.538407 21.3195 0.538407 21.9526 0.928931 22.3431L7.29289 28.7071ZM7 -4.37114e-08L7 28L9 28L9 4.37114e-08L7 -4.37114e-08Z" fill="currentColor"/>
	</symbol>
	<symbol viewBox="0 0 49 16" fill="none" id="icon-arrow-left">
		<path d="M0.292892 8.70711C-0.0976295 8.31658 -0.0976295 7.68342 0.292892 7.29289L6.65685 0.928932C7.04738 0.538408 7.68054 0.538408 8.07107 0.928932C8.46159 1.31946 8.46159 1.95262 8.07107 2.34315L2.41422 8L8.07107 13.6569C8.46159 14.0474 8.46159 14.6805 8.07107 15.0711C7.68054 15.4616 7.04738 15.4616 6.65685 15.0711L0.292892 8.70711ZM49 9H1V7H49V9Z" fill="currentColor"/>
	</symbol>
	<symbol viewBox="0 0 49 16" fill="none" id="icon-arrow-right">
		<path d="M48.7071 7.29289C49.0976 7.68342 49.0976 8.31658 48.7071 8.70711L42.3431 15.0711C41.9526 15.4616 41.3195 15.4616 40.9289 15.0711C40.5384 14.6805 40.5384 14.0474 40.9289 13.6569L46.5858 8L40.9289 2.34315C40.5384 1.95262 40.5384 1.31946 40.9289 0.928932C41.3195 0.538408 41.9526 0.538408 42.3431 0.928932L48.7071 7.29289ZM0 7L48 7V9L0 9L0 7Z" fill="currentColor"/>
	</symbol>
	<symbol viewBox="0 0 18 18" fill="none" id="icon-arrow-thic">
		<path d="M14.8421 0H0V4.73684H9.94737L0 14.6842L3.31579 18L18 3.31579L14.8421 0Z" fill="currentColor"/>
		<path d="M13.2632 18V8.21053L18 12.9474V18H13.2632Z" fill="currentColor"/>
	</symbol>
	<symbol viewBox="0 0 688 78" fill="none" id="logo-main">
		<path d="M19.536 18.9851H19.036V19.4851V29.2574V29.7574H19.536H91.5263H92.0263V29.2574V19.4851V18.9851H91.5263H19.536ZM110.562 29.2574V29.7574H111.062H120.36V77.5H0.5V0.5H110.562V29.2574ZM101.764 48.7425V48.2425H101.264H19.536H19.036V48.7425V58.5149V59.0149H19.536H101.264H101.764V58.5149V48.7425ZM160.029 58.4553V58.9553H160.529H257.47V77.4404H141.493V0.5H160.029V58.4553ZM310.245 48.183H309.957L309.812 48.4328L293.049 77.4404H271.682L316.209 0.5H372.269L416.796 77.4404H395.369L378.606 48.4328L378.461 48.183H378.173H310.245ZM321.103 29.0083L320.673 29.7574H321.537H366.822H367.686L367.255 29.0083L361.639 19.236L361.495 18.9851H361.206H327.152H326.863L326.719 19.236L321.103 29.0083ZM531.794 56.6081V0.5H550.33V77.4404H531.457L453.683 20.9278L452.89 20.3509V21.3323V77.4404H434.354V0.5H453.227L531 57.0126L531.794 57.5895V56.6081ZM633.819 39.3754L686.455 77.4404H658.649L618.334 48.3372L618.203 48.2425H618.041H590.499H589.999V48.7425V77.4404H571.464V0.5H589.999V29.2574V29.7574H590.499H618.041H618.203L618.334 29.6626L658.649 0.5H686.455L633.819 38.565L633.259 38.9702L633.819 39.3754Z" fill="currentColor" stroke="#fff"/>
	</symbol>
	<symbol viewBox="0 0 19 13" fill="none" id="icon-youtube">
		<path fill-rule="evenodd" clip-rule="evenodd" d="M17.9888 0.990741C18.2836 1.27887 18.4953 1.63713 18.6027 2.02968C19 3.47855 19 6.5 19 6.5C19 6.5 19 9.52145 18.6027 10.9703C18.4953 11.3629 18.2836 11.7211 17.9888 12.0093C17.694 12.2974 17.3265 12.5053 16.923 12.6121C15.4375 13 9.5 13 9.5 13C9.5 13 3.5625 13 2.07705 12.6121C1.67353 12.5053 1.30598 12.2974 1.01119 12.0093C0.716392 11.7211 0.504692 11.3629 0.397273 10.9703C4.7187e-08 9.52145 0 6.5 0 6.5C0 6.5 4.7187e-08 3.47855 0.397273 2.02968C0.504692 1.63713 0.716392 1.27887 1.01119 0.990741C1.30598 0.702615 1.67353 0.494735 2.07705 0.387903C3.5625 0 9.5 0 9.5 0C9.5 0 15.4375 0 16.923 0.387903C17.3265 0.494735 17.694 0.702615 17.9888 0.990741ZM12.5227 6.50002L7.55683 3.7564V9.24365L12.5227 6.50002Z" fill="currentColor"/>
	</symbol>
	<symbol viewBox="0 0 25 19" fill="none" id="icon-telegram">
		<path fill-rule="evenodd" clip-rule="evenodd" d="M1.71862 8.17938C8.42949 5.49804 12.9045 3.73034 15.1435 2.87627C21.5365 0.437736 22.8649 0.0141366 23.7307 0.000149138C23.9212 -0.00292726 24.347 0.0403535 24.6228 0.245594C24.8557 0.418895 24.9197 0.653001 24.9504 0.817309C24.9811 0.981618 25.0192 1.35592 24.9889 1.64838C24.6424 4.98655 23.1434 13.0874 22.3808 16.8262C22.0581 18.4082 21.4227 18.9387 20.8076 18.9906C19.4707 19.1034 18.4556 18.1804 17.1608 17.402C15.1348 16.184 13.9901 15.4259 12.0235 14.2373C9.75066 12.8638 11.224 12.1089 12.5193 10.8751C12.8583 10.5522 18.7484 5.63905 18.8624 5.19335C18.8767 5.13761 18.8899 4.92982 18.7553 4.82011C18.6207 4.71039 18.422 4.74791 18.2787 4.77775C18.0754 4.82004 14.8388 6.78196 8.56858 10.6635C7.64986 11.242 6.8177 11.5239 6.07212 11.5091C5.25018 11.4929 3.6691 11.0829 2.49372 10.7326C1.05207 10.3028 -0.0937162 10.0756 0.00605648 9.34573C0.0580243 8.96558 0.628878 8.57679 1.71862 8.17938Z" fill="currentColor"/>
	</symbol>
	<symbol viewBox="0 0 27 17" fill="none" id="icon-vk">
		<path d="M14.7058 17C5.48092 17 0.219251 10.6186 0 0H4.62087C4.77265 7.79378 8.1792 11.0951 10.8775 11.7758V0H15.2287V6.72167C17.8932 6.43239 20.6924 3.36937 21.6368 0H25.988C25.2628 4.15217 22.2272 7.21519 20.0686 8.47443C22.2272 9.49545 25.6846 12.1671 27 17H22.2103C21.1816 13.7668 18.6184 11.2653 15.2287 10.9249V17H14.7058Z" fill="currentColor"/>
	</symbol>
	<symbol viewBox="0 0 50 50" fill="currentColor" id="icon-whatsapp">
		<path d="M25,2C12.318,2,2,12.318,2,25c0,3.96,1.023,7.854,2.963,11.29L2.037,46.73c-0.096,0.343-0.003,0.711,0.245,0.966 C2.473,47.893,2.733,48,3,48c0.08,0,0.161-0.01,0.24-0.029l10.896-2.699C17.463,47.058,21.21,48,25,48c12.682,0,23-10.318,23-23 S37.682,2,25,2z M36.57,33.116c-0.492,1.362-2.852,2.605-3.986,2.772c-1.018,0.149-2.306,0.213-3.72-0.231 c-0.857-0.27-1.957-0.628-3.366-1.229c-5.923-2.526-9.791-8.415-10.087-8.804C15.116,25.235,13,22.463,13,19.594 s1.525-4.28,2.067-4.864c0.542-0.584,1.181-0.73,1.575-0.73s0.787,0.005,1.132,0.021c0.363,0.018,0.85-0.137,1.329,1.001 c0.492,1.168,1.673,4.037,1.819,4.33c0.148,0.292,0.246,0.633,0.05,1.022c-0.196,0.389-0.294,0.632-0.59,0.973 s-0.62,0.76-0.886,1.022c-0.296,0.291-0.603,0.606-0.259,1.19c0.344,0.584,1.529,2.493,3.285,4.039 c2.255,1.986,4.158,2.602,4.748,2.894c0.59,0.292,0.935,0.243,1.279-0.146c0.344-0.39,1.476-1.703,1.869-2.286 s0.787-0.487,1.329-0.292c0.542,0.194,3.445,1.604,4.035,1.896c0.59,0.292,0.984,0.438,1.132,0.681 C37.062,30.587,37.062,31.755,36.57,33.116z"/>
	</symbol>
</svg>
